<?xml version="1.0" encoding="UTF-8" standalone="no"?>
<!DOCTYPE svg PUBLIC "-//W3C//DTD SVG 1.1//EN"
 "http://www.w3.org/Graphics/SVG/1.1/DTD/svg11.dtd">
<!-- Generated by graphviz version 2.40.1 (20161225.0304)
 -->
<!-- Title: dependencies Pages: 1 -->
<svg width="4970pt" height="349pt"
 viewBox="0.00 0.00 4970.00 349.00" xmlns="http://www.w3.org/2000/svg" xmlns:xlink="http://www.w3.org/1999/xlink">
<g id="graph0" class="graph" transform="scale(1 1) rotate(0) translate(4 345)">
<title>dependencies</title>
<polygon fill="#ffffff" stroke="transparent" points="-4,4 -4,-345 4966,-345 4966,4 -4,4"/>
<text text-anchor="start" x="2460.0091" y="-42.4" font-family="sans-serif" font-weight="bold" font-size="14.00" fill="#000000">Legend</text>
<polygon fill="#ffffb3" stroke="transparent" points="2247,-10 2247,-30 2267,-30 2267,-10 2247,-10"/>
<text text-anchor="start" x="2270.629" y="-15.4" font-family="sans-serif" font-size="14.00" fill="#000000"> &#160;Declarations</text>
<polygon fill="#8dd3c7" stroke="transparent" points="2360,-10 2360,-30 2380,-30 2380,-10 2360,-10"/>
<text text-anchor="start" x="2383.7251" y="-15.4" font-family="sans-serif" font-size="14.00" fill="#000000"> &#160;Module</text>
<polygon fill="#80b1d3" stroke="transparent" points="2446,-10 2446,-30 2466,-30 2466,-10 2446,-10"/>
<text text-anchor="start" x="2469.7812" y="-15.4" font-family="sans-serif" font-size="14.00" fill="#000000"> &#160;Bootstrap</text>
<polygon fill="#fdb462" stroke="transparent" points="2543,-10 2543,-30 2563,-30 2563,-10 2543,-10"/>
<text text-anchor="start" x="2566.6732" y="-15.4" font-family="sans-serif" font-size="14.00" fill="#000000"> &#160;Providers</text>
<polygon fill="#fb8072" stroke="transparent" points="2639,-10 2639,-30 2659,-30 2659,-10 2639,-10"/>
<text text-anchor="start" x="2662.7258" y="-15.4" font-family="sans-serif" font-size="14.00" fill="#000000"> &#160;Exports</text>
<g id="clust1" class="cluster">
<title>cluster_AppModule</title>
<polygon fill="none" stroke="#000000" stroke-dasharray="1,5" points="8,-70 8,-333 4954,-333 4954,-70 8,-70"/>
</g>
<g id="clust2" class="cluster">
<title>cluster_AppModule_declarations</title>
<polygon fill="none" stroke="#000000" points="174,-143 174,-195 4946,-195 4946,-143 174,-143"/>
</g>
<g id="clust3" class="cluster">
<title>cluster_AppModule_AppComponent_providers</title>
<polygon fill="none" stroke="#000000" points="4825,-78 4825,-130 4945,-130 4945,-78 4825,-78"/>
</g>
<g id="clust36" class="cluster">
<title>cluster_AppModule_bootstrap</title>
<polygon fill="none" stroke="#000000" points="2535,-273 2535,-325 2659,-325 2659,-273 2535,-273"/>
</g>
<g id="clust37" class="cluster">
<title>cluster_AppModule_providers</title>
<polygon fill="none" stroke="#000000" points="16,-143 16,-195 166,-195 166,-143 16,-143"/>
</g>
<!-- AppComponent -->
<g id="node1" class="node">
<title>AppComponent</title>
<polygon fill="#ffffb3" stroke="#000000" points="4937.9399,-187 4832.0601,-187 4832.0601,-151 4937.9399,-151 4937.9399,-187"/>
<text text-anchor="middle" x="4885" y="-164.8" font-family="Times,serif" font-size="14.00" fill="#000000">AppComponent</text>
</g>
<!-- AppModule -->
<g id="node32" class="node">
<title>AppModule</title>
<polygon fill="#8dd3c7" stroke="#000000" points="2638.6571,-252 2635.6571,-256 2614.6571,-256 2611.6571,-252 2555.3429,-252 2555.3429,-216 2638.6571,-216 2638.6571,-252"/>
<text text-anchor="middle" x="2597" y="-229.8" font-family="Times,serif" font-size="14.00" fill="#000000">AppModule</text>
</g>
<!-- AppComponent&#45;&gt;AppModule -->
<g id="edge1" class="edge">
<title>AppComponent&#45;&gt;AppModule</title>
<path fill="none" stroke="#000000" d="M4885,-187.3802C4885,-211.2785 4885,-250 4885,-250 4885,-250 2648.6657,-250 2648.6657,-250"/>
<polygon fill="#000000" stroke="#000000" points="2648.6657,-246.5001 2638.6657,-250 2648.6656,-253.5001 2648.6657,-246.5001"/>
</g>
<!-- GithubComponent -->
<g id="node2" class="node">
<title>GithubComponent</title>
<polygon fill="#ffffb3" stroke="#000000" points="4814.2204,-187 4693.7796,-187 4693.7796,-151 4814.2204,-151 4814.2204,-187"/>
<text text-anchor="middle" x="4754" y="-164.8" font-family="Times,serif" font-size="14.00" fill="#000000">GithubComponent</text>
</g>
<!-- GithubComponent&#45;&gt;AppModule -->
<g id="edge3" class="edge">
<title>GithubComponent&#45;&gt;AppModule</title>
<path fill="none" stroke="#000000" d="M4754,-187.3228C4754,-210.6602 4754,-248 4754,-248 4754,-248 2649.1197,-248 2649.1197,-248"/>
<polygon fill="#000000" stroke="#000000" points="2649.1198,-244.5001 2639.1197,-248 2649.1197,-251.5001 2649.1198,-244.5001"/>
</g>
<!-- SearchComponent -->
<g id="node3" class="node">
<title>SearchComponent</title>
<polygon fill="#ffffb3" stroke="#000000" points="4675.9201,-187 4556.0799,-187 4556.0799,-151 4675.9201,-151 4675.9201,-187"/>
<text text-anchor="middle" x="4616" y="-164.8" font-family="Times,serif" font-size="14.00" fill="#000000">SearchComponent</text>
</g>
<!-- SearchComponent&#45;&gt;AppModule -->
<g id="edge4" class="edge">
<title>SearchComponent&#45;&gt;AppModule</title>
<path fill="none" stroke="#000000" d="M4616,-187.2479C4616,-210.0179 4616,-246 4616,-246 4616,-246 2648.7062,-246 2648.7062,-246"/>
<polygon fill="#000000" stroke="#000000" points="2648.7063,-242.5001 2638.7062,-246 2648.7062,-249.5001 2648.7063,-242.5001"/>
</g>
<!-- ChartComponent -->
<g id="node4" class="node">
<title>ChartComponent</title>
<polygon fill="#ffffb3" stroke="#000000" points="4538.4356,-187 4425.5644,-187 4425.5644,-151 4538.4356,-151 4538.4356,-187"/>
<text text-anchor="middle" x="4482" y="-164.8" font-family="Times,serif" font-size="14.00" fill="#000000">ChartComponent</text>
</g>
<!-- ChartComponent&#45;&gt;AppModule -->
<g id="edge5" class="edge">
<title>ChartComponent&#45;&gt;AppModule</title>
<path fill="none" stroke="#000000" d="M4482,-187.2921C4482,-209.2057 4482,-243 4482,-243 4482,-243 2649.0138,-243 2649.0138,-243"/>
<polygon fill="#000000" stroke="#000000" points="2649.0138,-239.5001 2639.0138,-243 2649.0138,-246.5001 2649.0138,-239.5001"/>
</g>
<!-- StackoverflowComponent -->
<g id="node5" class="node">
<title>StackoverflowComponent</title>
<polygon fill="#ffffb3" stroke="#000000" points="4407.4678,-187 4244.5322,-187 4244.5322,-151 4407.4678,-151 4407.4678,-187"/>
<text text-anchor="middle" x="4326" y="-164.8" font-family="Times,serif" font-size="14.00" fill="#000000">StackoverflowComponent</text>
</g>
<!-- StackoverflowComponent&#45;&gt;AppModule -->
<g id="edge6" class="edge">
<title>StackoverflowComponent&#45;&gt;AppModule</title>
<path fill="none" stroke="#000000" d="M4326,-187.1686C4326,-208.498 4326,-241 4326,-241 4326,-241 2648.8829,-241 2648.8829,-241"/>
<polygon fill="#000000" stroke="#000000" points="2648.8829,-237.5001 2638.8829,-241 2648.8828,-244.5001 2648.8829,-237.5001"/>
</g>
<!-- TwitterComponent -->
<g id="node6" class="node">
<title>TwitterComponent</title>
<polygon fill="#ffffb3" stroke="#000000" points="4226.0395,-187 4103.9605,-187 4103.9605,-151 4226.0395,-151 4226.0395,-187"/>
<text text-anchor="middle" x="4165" y="-164.8" font-family="Times,serif" font-size="14.00" fill="#000000">TwitterComponent</text>
</g>
<!-- TwitterComponent&#45;&gt;AppModule -->
<g id="edge7" class="edge">
<title>TwitterComponent&#45;&gt;AppModule</title>
<path fill="none" stroke="#000000" d="M4165,-187.0267C4165,-207.7672 4165,-239 4165,-239 4165,-239 2648.9402,-239 2648.9402,-239"/>
<polygon fill="#000000" stroke="#000000" points="2648.9402,-235.5001 2638.9402,-239 2648.9402,-242.5001 2648.9402,-235.5001"/>
</g>
<!-- AboutComponent -->
<g id="node7" class="node">
<title>AboutComponent</title>
<polygon fill="#ffffb3" stroke="#000000" points="4086.3301,-187 3969.6699,-187 3969.6699,-151 4086.3301,-151 4086.3301,-187"/>
<text text-anchor="middle" x="4028" y="-164.8" font-family="Times,serif" font-size="14.00" fill="#000000">AboutComponent</text>
</g>
<!-- AboutComponent&#45;&gt;AppModule -->
<g id="edge8" class="edge">
<title>AboutComponent&#45;&gt;AppModule</title>
<path fill="none" stroke="#000000" d="M4028,-187.2228C4028,-207.3652 4028,-237 4028,-237 4028,-237 2648.6671,-237 2648.6671,-237"/>
<polygon fill="#000000" stroke="#000000" points="2648.6672,-233.5001 2638.6671,-237 2648.6671,-240.5001 2648.6672,-233.5001"/>
</g>
<!-- HowtoComponent -->
<g id="node8" class="node">
<title>HowtoComponent</title>
<polygon fill="#ffffb3" stroke="#000000" points="3951.937,-187 3832.063,-187 3832.063,-151 3951.937,-151 3951.937,-187"/>
<text text-anchor="middle" x="3892" y="-164.8" font-family="Times,serif" font-size="14.00" fill="#000000">HowtoComponent</text>
</g>
<!-- HowtoComponent&#45;&gt;AppModule -->
<g id="edge9" class="edge">
<title>HowtoComponent&#45;&gt;AppModule</title>
<path fill="none" stroke="#000000" d="M3892,-187.1061C3892,-206.3391 3892,-234 3892,-234 3892,-234 2648.9848,-234 2648.9848,-234"/>
<polygon fill="#000000" stroke="#000000" points="2648.9848,-230.5001 2638.9848,-234 2648.9847,-237.5001 2648.9848,-230.5001"/>
</g>
<!-- CommitsComponent -->
<g id="node9" class="node">
<title>CommitsComponent</title>
<polygon fill="#ffffb3" stroke="#000000" points="3814.1764,-187 3681.8236,-187 3681.8236,-151 3814.1764,-151 3814.1764,-187"/>
<text text-anchor="middle" x="3748" y="-164.8" font-family="Times,serif" font-size="14.00" fill="#000000">CommitsComponent</text>
</g>
<!-- CommitsComponent&#45;&gt;AppModule -->
<g id="edge10" class="edge">
<title>CommitsComponent&#45;&gt;AppModule</title>
<path fill="none" stroke="#000000" d="M3748,-187.2222C3748,-205.8285 3748,-232 3748,-232 3748,-232 2648.9866,-232 2648.9866,-232"/>
<polygon fill="#000000" stroke="#000000" points="2648.9866,-228.5001 2638.9866,-232 2648.9865,-235.5001 2648.9866,-228.5001"/>
</g>
<!-- PreloaderComponent -->
<g id="node10" class="node">
<title>PreloaderComponent</title>
<polygon fill="#ffffb3" stroke="#000000" points="3663.4706,-187 3528.5294,-187 3528.5294,-151 3663.4706,-151 3663.4706,-187"/>
<text text-anchor="middle" x="3596" y="-164.8" font-family="Times,serif" font-size="14.00" fill="#000000">PreloaderComponent</text>
</g>
<!-- PreloaderComponent&#45;&gt;AppModule -->
<g id="edge11" class="edge">
<title>PreloaderComponent&#45;&gt;AppModule</title>
<path fill="none" stroke="#000000" d="M3596,-187.302C3596,-205.2699 3596,-230 3596,-230 3596,-230 2648.9703,-230 2648.9703,-230"/>
<polygon fill="#000000" stroke="#000000" points="2648.9703,-226.5001 2638.9703,-230 2648.9702,-233.5001 2648.9703,-226.5001"/>
</g>
<!-- ContributionschartComponent -->
<g id="node11" class="node">
<title>ContributionschartComponent</title>
<polygon fill="#ffffb3" stroke="#000000" points="3510.3173,-187 3323.6827,-187 3323.6827,-151 3510.3173,-151 3510.3173,-187"/>
<text text-anchor="middle" x="3417" y="-164.8" font-family="Times,serif" font-size="14.00" fill="#000000">ContributionschartComponent</text>
</g>
<!-- ContributionschartComponent&#45;&gt;AppModule -->
<g id="edge12" class="edge">
<title>ContributionschartComponent&#45;&gt;AppModule</title>
<path fill="none" stroke="#000000" d="M3417,-187.0225C3417,-204.3734 3417,-228 3417,-228 3417,-228 2648.7913,-228 2648.7913,-228"/>
<polygon fill="#000000" stroke="#000000" points="2648.7913,-224.5001 2638.7913,-228 2648.7912,-231.5001 2648.7913,-224.5001"/>
</g>
<!-- StarcountComponent -->
<g id="node12" class="node">
<title>StarcountComponent</title>
<polygon fill="#ffffb3" stroke="#000000" points="3305.486,-187 3170.514,-187 3170.514,-151 3305.486,-151 3305.486,-187"/>
<text text-anchor="middle" x="3238" y="-164.8" font-family="Times,serif" font-size="14.00" fill="#000000">StarcountComponent</text>
</g>
<!-- StarcountComponent&#45;&gt;AppModule -->
<g id="edge13" class="edge">
<title>StarcountComponent&#45;&gt;AppModule</title>
<path fill="none" stroke="#000000" d="M3238,-187.027C3238,-203.3976 3238,-225 3238,-225 3238,-225 2649.0578,-225 2649.0578,-225"/>
<polygon fill="#000000" stroke="#000000" points="2649.0578,-221.5001 2639.0578,-225 2649.0578,-228.5001 2649.0578,-221.5001"/>
</g>
<!-- ForksComponent -->
<g id="node13" class="node">
<title>ForksComponent</title>
<polygon fill="#ffffb3" stroke="#000000" points="3152.7204,-187 3039.2796,-187 3039.2796,-151 3152.7204,-151 3152.7204,-187"/>
<text text-anchor="middle" x="3096" y="-164.8" font-family="Times,serif" font-size="14.00" fill="#000000">ForksComponent</text>
</g>
<!-- ForksComponent&#45;&gt;AppModule -->
<g id="edge14" class="edge">
<title>ForksComponent&#45;&gt;AppModule</title>
<path fill="none" stroke="#000000" d="M3096,-187.2819C3096,-202.9478 3096,-223 3096,-223 3096,-223 2648.6862,-223 2648.6862,-223"/>
<polygon fill="#000000" stroke="#000000" points="2648.6862,-219.5001 2638.6862,-223 2648.6861,-226.5001 2648.6862,-219.5001"/>
</g>
<!-- FooterComponent -->
<g id="node14" class="node">
<title>FooterComponent</title>
<polygon fill="#ffffb3" stroke="#000000" points="3020.8809,-187 2903.1191,-187 2903.1191,-151 3020.8809,-151 3020.8809,-187"/>
<text text-anchor="middle" x="2962" y="-164.8" font-family="Times,serif" font-size="14.00" fill="#000000">FooterComponent</text>
</g>
<!-- FooterComponent&#45;&gt;AppModule -->
<g id="edge15" class="edge">
<title>FooterComponent&#45;&gt;AppModule</title>
<path fill="none" stroke="#000000" d="M2962,-187.1871C2962,-202.1824 2962,-221 2962,-221 2962,-221 2648.8701,-221 2648.8701,-221"/>
<polygon fill="#000000" stroke="#000000" points="2648.8702,-217.5001 2638.8701,-221 2648.8701,-224.5001 2648.8702,-217.5001"/>
</g>
<!-- WatchersComponent -->
<g id="node15" class="node">
<title>WatchersComponent</title>
<polygon fill="#ffffb3" stroke="#000000" points="2885.1867,-187 2750.8133,-187 2750.8133,-151 2885.1867,-151 2885.1867,-187"/>
<text text-anchor="middle" x="2818" y="-164.8" font-family="Times,serif" font-size="14.00" fill="#000000">WatchersComponent</text>
</g>
<!-- WatchersComponent&#45;&gt;AppModule -->
<g id="edge16" class="edge">
<title>WatchersComponent&#45;&gt;AppModule</title>
<path fill="none" stroke="#000000" d="M2818,-187.0511C2818,-201.373 2818,-219 2818,-219 2818,-219 2648.8282,-219 2648.8282,-219"/>
<polygon fill="#000000" stroke="#000000" points="2648.8283,-215.5001 2638.8282,-219 2648.8282,-222.5001 2648.8283,-215.5001"/>
</g>
<!-- IssuesComponent -->
<g id="node16" class="node">
<title>IssuesComponent</title>
<polygon fill="#ffffb3" stroke="#000000" points="2732.5423,-187 2617.4577,-187 2617.4577,-151 2732.5423,-151 2732.5423,-187"/>
<text text-anchor="middle" x="2675" y="-164.8" font-family="Times,serif" font-size="14.00" fill="#000000">IssuesComponent</text>
</g>
<!-- IssuesComponent&#45;&gt;AppModule -->
<g id="edge17" class="edge">
<title>IssuesComponent&#45;&gt;AppModule</title>
<path fill="none" stroke="#000000" d="M2628.0288,-187.1061C2628.0288,-187.1061 2628.0288,-205.991 2628.0288,-205.991"/>
<polygon fill="#000000" stroke="#000000" points="2624.5288,-205.9909 2628.0288,-215.991 2631.5288,-205.991 2624.5288,-205.9909"/>
</g>
<!-- OrganizationsComponent -->
<g id="node17" class="node">
<title>OrganizationsComponent</title>
<polygon fill="#ffffb3" stroke="#000000" points="2598.8599,-187 2439.1401,-187 2439.1401,-151 2598.8599,-151 2598.8599,-187"/>
<text text-anchor="middle" x="2519" y="-164.8" font-family="Times,serif" font-size="14.00" fill="#000000">OrganizationsComponent</text>
</g>
<!-- OrganizationsComponent&#45;&gt;AppModule -->
<g id="edge18" class="edge">
<title>OrganizationsComponent&#45;&gt;AppModule</title>
<path fill="none" stroke="#000000" d="M2577.0509,-187.1061C2577.0509,-187.1061 2577.0509,-205.991 2577.0509,-205.991"/>
<polygon fill="#000000" stroke="#000000" points="2573.5509,-205.9909 2577.0509,-215.991 2580.5509,-205.991 2573.5509,-205.9909"/>
</g>
<!-- DashboardComponent -->
<g id="node18" class="node">
<title>DashboardComponent</title>
<polygon fill="#ffffb3" stroke="#000000" points="2420.9734,-187 2279.0266,-187 2279.0266,-151 2420.9734,-151 2420.9734,-187"/>
<text text-anchor="middle" x="2350" y="-164.8" font-family="Times,serif" font-size="14.00" fill="#000000">DashboardComponent</text>
</g>
<!-- DashboardComponent&#45;&gt;AppModule -->
<g id="edge19" class="edge">
<title>DashboardComponent&#45;&gt;AppModule</title>
<path fill="none" stroke="#000000" d="M2350,-187.0511C2350,-201.373 2350,-219 2350,-219 2350,-219 2545.0998,-219 2545.0998,-219"/>
<polygon fill="#000000" stroke="#000000" points="2545.0999,-222.5001 2555.0998,-219 2545.0998,-215.5001 2545.0999,-222.5001"/>
</g>
<!-- ErrorComponent -->
<g id="node19" class="node">
<title>ErrorComponent</title>
<polygon fill="#ffffb3" stroke="#000000" points="2261.3669,-187 2150.6331,-187 2150.6331,-151 2261.3669,-151 2261.3669,-187"/>
<text text-anchor="middle" x="2206" y="-164.8" font-family="Times,serif" font-size="14.00" fill="#000000">ErrorComponent</text>
</g>
<!-- ErrorComponent&#45;&gt;AppModule -->
<g id="edge20" class="edge">
<title>ErrorComponent&#45;&gt;AppModule</title>
<path fill="none" stroke="#000000" d="M2206,-187.1871C2206,-202.1824 2206,-221 2206,-221 2206,-221 2545.1562,-221 2545.1562,-221"/>
<polygon fill="#000000" stroke="#000000" points="2545.1562,-224.5001 2555.1562,-221 2545.1561,-217.5001 2545.1562,-224.5001"/>
</g>
<!-- TagsComponent -->
<g id="node20" class="node">
<title>TagsComponent</title>
<polygon fill="#ffffb3" stroke="#000000" points="2132.0452,-187 2023.9548,-187 2023.9548,-151 2132.0452,-151 2132.0452,-187"/>
<text text-anchor="middle" x="2078" y="-164.8" font-family="Times,serif" font-size="14.00" fill="#000000">TagsComponent</text>
</g>
<!-- TagsComponent&#45;&gt;AppModule -->
<g id="edge21" class="edge">
<title>TagsComponent&#45;&gt;AppModule</title>
<path fill="none" stroke="#000000" d="M2078,-187.2819C2078,-202.9478 2078,-223 2078,-223 2078,-223 2544.9677,-223 2544.9677,-223"/>
<polygon fill="#000000" stroke="#000000" points="2544.9677,-226.5001 2554.9677,-223 2544.9676,-219.5001 2544.9677,-226.5001"/>
</g>
<!-- MentionsComponent -->
<g id="node21" class="node">
<title>MentionsComponent</title>
<polygon fill="#ffffb3" stroke="#000000" points="2006.2176,-187 1871.7824,-187 1871.7824,-151 2006.2176,-151 2006.2176,-187"/>
<text text-anchor="middle" x="1939" y="-164.8" font-family="Times,serif" font-size="14.00" fill="#000000">MentionsComponent</text>
</g>
<!-- MentionsComponent&#45;&gt;AppModule -->
<g id="edge22" class="edge">
<title>MentionsComponent&#45;&gt;AppModule</title>
<path fill="none" stroke="#000000" d="M1939,-187.027C1939,-203.3976 1939,-225 1939,-225 1939,-225 2545.34,-225 2545.34,-225"/>
<polygon fill="#000000" stroke="#000000" points="2545.34,-228.5001 2555.34,-225 2545.3399,-221.5001 2545.34,-228.5001"/>
</g>
<!-- WordcloudComponent -->
<g id="node22" class="node">
<title>WordcloudComponent</title>
<polygon fill="#ffffb3" stroke="#000000" points="1854.3131,-187 1709.6869,-187 1709.6869,-151 1854.3131,-151 1854.3131,-187"/>
<text text-anchor="middle" x="1782" y="-164.8" font-family="Times,serif" font-size="14.00" fill="#000000">WordcloudComponent</text>
</g>
<!-- WordcloudComponent&#45;&gt;AppModule -->
<g id="edge23" class="edge">
<title>WordcloudComponent&#45;&gt;AppModule</title>
<path fill="none" stroke="#000000" d="M1782,-187.0225C1782,-204.3734 1782,-228 1782,-228 1782,-228 2545.1813,-228 2545.1813,-228"/>
<polygon fill="#000000" stroke="#000000" points="2545.1814,-231.5001 2555.1813,-228 2545.1813,-224.5001 2545.1814,-231.5001"/>
</g>
<!-- ToptagsComponent -->
<g id="node23" class="node">
<title>ToptagsComponent</title>
<polygon fill="#ffffb3" stroke="#000000" points="1692.4356,-187 1565.5644,-187 1565.5644,-151 1692.4356,-151 1692.4356,-187"/>
<text text-anchor="middle" x="1629" y="-164.8" font-family="Times,serif" font-size="14.00" fill="#000000">ToptagsComponent</text>
</g>
<!-- ToptagsComponent&#45;&gt;AppModule -->
<g id="edge24" class="edge">
<title>ToptagsComponent&#45;&gt;AppModule</title>
<path fill="none" stroke="#000000" d="M1629,-187.302C1629,-205.2699 1629,-230 1629,-230 1629,-230 2545.0956,-230 2545.0956,-230"/>
<polygon fill="#000000" stroke="#000000" points="2545.0956,-233.5001 2555.0956,-230 2545.0955,-226.5001 2545.0956,-233.5001"/>
</g>
<!-- CapitalizeFirstPipe -->
<g id="node24" class="node">
<title>CapitalizeFirstPipe</title>
<polygon fill="#ffffb3" stroke="#000000" points="1547.8146,-187 1424.1854,-187 1424.1854,-151 1547.8146,-151 1547.8146,-187"/>
<text text-anchor="middle" x="1486" y="-164.8" font-family="Times,serif" font-size="14.00" fill="#000000">CapitalizeFirstPipe</text>
</g>
<!-- CapitalizeFirstPipe&#45;&gt;AppModule -->
<g id="edge25" class="edge">
<title>CapitalizeFirstPipe&#45;&gt;AppModule</title>
<path fill="none" stroke="#000000" d="M1486,-187.2222C1486,-205.8285 1486,-232 1486,-232 1486,-232 2545.1403,-232 2545.1403,-232"/>
<polygon fill="#000000" stroke="#000000" points="2545.1403,-235.5001 2555.1403,-232 2545.1402,-228.5001 2545.1403,-235.5001"/>
</g>
<!-- ReputationComponent -->
<g id="node25" class="node">
<title>ReputationComponent</title>
<polygon fill="#ffffb3" stroke="#000000" points="1406.2702,-187 1263.7298,-187 1263.7298,-151 1406.2702,-151 1406.2702,-187"/>
<text text-anchor="middle" x="1335" y="-164.8" font-family="Times,serif" font-size="14.00" fill="#000000">ReputationComponent</text>
</g>
<!-- ReputationComponent&#45;&gt;AppModule -->
<g id="edge26" class="edge">
<title>ReputationComponent&#45;&gt;AppModule</title>
<path fill="none" stroke="#000000" d="M1335,-187.1061C1335,-206.3391 1335,-234 1335,-234 1335,-234 2545.011,-234 2545.011,-234"/>
<polygon fill="#000000" stroke="#000000" points="2545.011,-237.5001 2555.011,-234 2545.011,-230.5001 2545.011,-237.5001"/>
</g>
<!-- StackerrorComponent -->
<g id="node26" class="node">
<title>StackerrorComponent</title>
<polygon fill="#ffffb3" stroke="#000000" points="1245.6317,-187 1106.3683,-187 1106.3683,-151 1245.6317,-151 1245.6317,-187"/>
<text text-anchor="middle" x="1176" y="-164.8" font-family="Times,serif" font-size="14.00" fill="#000000">StackerrorComponent</text>
</g>
<!-- StackerrorComponent&#45;&gt;AppModule -->
<g id="edge27" class="edge">
<title>StackerrorComponent&#45;&gt;AppModule</title>
<path fill="none" stroke="#000000" d="M1176,-187.2228C1176,-207.3652 1176,-237 1176,-237 1176,-237 2545.2417,-237 2545.2417,-237"/>
<polygon fill="#000000" stroke="#000000" points="2545.2418,-240.5001 2555.2417,-237 2545.2417,-233.5001 2545.2418,-240.5001"/>
</g>
<!-- TwitterdashboardComponent -->
<g id="node27" class="node">
<title>TwitterdashboardComponent</title>
<polygon fill="#ffffb3" stroke="#000000" points="1088.073,-187 907.927,-187 907.927,-151 1088.073,-151 1088.073,-187"/>
<text text-anchor="middle" x="998" y="-164.8" font-family="Times,serif" font-size="14.00" fill="#000000">TwitterdashboardComponent</text>
</g>
<!-- TwitterdashboardComponent&#45;&gt;AppModule -->
<g id="edge28" class="edge">
<title>TwitterdashboardComponent&#45;&gt;AppModule</title>
<path fill="none" stroke="#000000" d="M998,-187.0267C998,-207.7672 998,-239 998,-239 998,-239 2545.0525,-239 2545.0525,-239"/>
<polygon fill="#000000" stroke="#000000" points="2545.0526,-242.5001 2555.0525,-239 2545.0525,-235.5001 2545.0526,-242.5001"/>
</g>
<!-- TwittertimelineComponent -->
<g id="node28" class="node">
<title>TwittertimelineComponent</title>
<polygon fill="#ffffb3" stroke="#000000" points="890.4213,-187 721.5787,-187 721.5787,-151 890.4213,-151 890.4213,-187"/>
<text text-anchor="middle" x="806" y="-164.8" font-family="Times,serif" font-size="14.00" fill="#000000">TwittertimelineComponent</text>
</g>
<!-- TwittertimelineComponent&#45;&gt;AppModule -->
<g id="edge29" class="edge">
<title>TwittertimelineComponent&#45;&gt;AppModule</title>
<path fill="none" stroke="#000000" d="M806,-187.1686C806,-208.498 806,-241 806,-241 806,-241 2544.9308,-241 2544.9308,-241"/>
<polygon fill="#000000" stroke="#000000" points="2544.9308,-244.5001 2554.9308,-241 2544.9307,-237.5001 2544.9308,-244.5001"/>
</g>
<!-- TwitterfollowersComponent -->
<g id="node29" class="node">
<title>TwitterfollowersComponent</title>
<polygon fill="#ffffb3" stroke="#000000" points="703.9073,-187 528.0927,-187 528.0927,-151 703.9073,-151 703.9073,-187"/>
<text text-anchor="middle" x="616" y="-164.8" font-family="Times,serif" font-size="14.00" fill="#000000">TwitterfollowersComponent</text>
</g>
<!-- TwitterfollowersComponent&#45;&gt;AppModule -->
<g id="edge30" class="edge">
<title>TwitterfollowersComponent&#45;&gt;AppModule</title>
<path fill="none" stroke="#000000" d="M616,-187.2921C616,-209.2057 616,-243 616,-243 616,-243 2545.1669,-243 2545.1669,-243"/>
<polygon fill="#000000" stroke="#000000" points="2545.167,-246.5001 2555.1669,-243 2545.1669,-239.5001 2545.167,-246.5001"/>
</g>
<!-- TwitterrealfollowersComponent -->
<g id="node30" class="node">
<title>TwitterrealfollowersComponent</title>
<polygon fill="#ffffb3" stroke="#000000" points="510.3876,-187 313.6124,-187 313.6124,-151 510.3876,-151 510.3876,-187"/>
<text text-anchor="middle" x="412" y="-164.8" font-family="Times,serif" font-size="14.00" fill="#000000">TwitterrealfollowersComponent</text>
</g>
<!-- TwitterrealfollowersComponent&#45;&gt;AppModule -->
<g id="edge31" class="edge">
<title>TwitterrealfollowersComponent&#45;&gt;AppModule</title>
<path fill="none" stroke="#000000" d="M412,-187.2479C412,-210.0179 412,-246 412,-246 412,-246 2545.3028,-246 2545.3028,-246"/>
<polygon fill="#000000" stroke="#000000" points="2545.3028,-249.5001 2555.3028,-246 2545.3028,-242.5001 2545.3028,-249.5001"/>
</g>
<!-- TempComponent -->
<g id="node31" class="node">
<title>TempComponent</title>
<polygon fill="#ffffb3" stroke="#000000" points="295.9902,-187 182.0098,-187 182.0098,-151 295.9902,-151 295.9902,-187"/>
<text text-anchor="middle" x="239" y="-164.8" font-family="Times,serif" font-size="14.00" fill="#000000">TempComponent</text>
</g>
<!-- TempComponent&#45;&gt;AppModule -->
<g id="edge32" class="edge">
<title>TempComponent&#45;&gt;AppModule</title>
<path fill="none" stroke="#000000" d="M239,-187.3228C239,-210.6602 239,-248 239,-248 239,-248 2545.323,-248 2545.323,-248"/>
<polygon fill="#000000" stroke="#000000" points="2545.323,-251.5001 2555.323,-248 2545.323,-244.5001 2545.323,-251.5001"/>
</g>
<!-- AppComponent  -->
<g id="node34" class="node">
<title>AppComponent </title>
<polygon fill="#80b1d3" stroke="#000000" points="2651.439,-317 2542.561,-317 2542.561,-281 2651.439,-281 2651.439,-317"/>
<text text-anchor="middle" x="2597" y="-294.8" font-family="Times,serif" font-size="14.00" fill="#000000">AppComponent </text>
</g>
<!-- AppModule&#45;&gt;AppComponent  -->
<g id="edge33" class="edge">
<title>AppModule&#45;&gt;AppComponent </title>
<path fill="none" stroke="#000000" stroke-dasharray="1,5" d="M2597,-252.1061C2597,-252.1061 2597,-270.991 2597,-270.991"/>
<polygon fill="#000000" stroke="#000000" points="2593.5001,-270.9909 2597,-280.991 2600.5001,-270.991 2593.5001,-270.9909"/>
</g>
<!-- HttpClient -->
<g id="node33" class="node">
<title>HttpClient</title>
<ellipse fill="#fdb462" stroke="#000000" cx="4885" cy="-104" rx="51.6208" ry="18"/>
<text text-anchor="middle" x="4885" y="-99.8" font-family="Times,serif" font-size="14.00" fill="#000000">HttpClient</text>
</g>
<!-- HttpClient&#45;&gt;AppComponent -->
<g id="edge2" class="edge">
<title>HttpClient&#45;&gt;AppComponent</title>
<path fill="none" stroke="#000000" d="M4885,-122.1061C4885,-122.1061 4885,-140.991 4885,-140.991"/>
<polygon fill="#000000" stroke="#000000" points="4881.5001,-140.9909 4885,-150.991 4888.5001,-140.991 4881.5001,-140.9909"/>
</g>
<!-- GithubService -->
<g id="node35" class="node">
<title>GithubService</title>
<ellipse fill="#fdb462" stroke="#000000" cx="91" cy="-169" rx="66.6325" ry="18"/>
<text text-anchor="middle" x="91" y="-164.8" font-family="Times,serif" font-size="14.00" fill="#000000">GithubService</text>
</g>
<!-- GithubService&#45;&gt;AppModule -->
<g id="edge34" class="edge">
<title>GithubService&#45;&gt;AppModule</title>
<path fill="none" stroke="#000000" d="M91,-187.3802C91,-211.2785 91,-250 91,-250 91,-250 2545.3358,-250 2545.3358,-250"/>
<polygon fill="#000000" stroke="#000000" points="2545.3358,-253.5001 2555.3358,-250 2545.3358,-246.5001 2545.3358,-253.5001"/>
</g>
</g>
</svg>
